HIERARCHY
ROOT Hips
{
  OFFSET -125.086 92.215 135.881
  CHANNELS 6 Xposition Yposition Zposition Zrotation Xrotation Yrotation
  JOINT LeftUpLeg
  {
    OFFSET 8.64259 1.95398 -2.38835
    CHANNELS 3 Zrotation Xrotation Yrotation
    JOINT LeftLeg
    {
      OFFSET 43.7702 0 0
      CHANNELS 3 Zrotation Xrotation Yrotation
      JOINT LeftFoot
      {
        OFFSET 40.6238 0 0
        CHANNELS 3 Zrotation Xrotation Yrotation
        JOINT LeftToeBase
        {
          OFFSET 12.7242 0 0
          CHANNELS 3 Zrotation Xrotation Yrotation
          End Site
          {
            OFFSET 0 0 0
          }
        }
      }
    }
  }
  JOINT RightUpLeg
  {
    OFFSET -8.2249 1.95398 -2.59336
    CHANNELS 3 Zrotation Xrotation Yrotation
    JOINT RightLeg
    {
      OFFSET 43.5653 0 0
      CHANNELS 3 Zrotation Xrotation Yrotation
      JOINT RightFoot
      {
        OFFSET 40.6238 0 0
        CHANNELS 3 Zrotation Xrotation Yrotation
        JOINT RightToeBase
        {
          OFFSET 12.7242 0 0
          CHANNELS 3 Zrotation Xrotation Yrotation
          End Site
          {
            OFFSET 0 0 0
          }
        }
      }
    }
  }
  JOINT Spine
  {
    OFFSET 0.165834 0.87714 6.61349
    CHANNELS 3 Zrotation Xrotation Yrotation
    JOINT Spine1
    {
      OFFSET 7.38963 1.71661e-005 0
      CHANNELS 3 Zrotation Xrotation Yrotation
      JOINT Spine2
      {
        OFFSET 11.9445 1.14441e-005 0
        CHANNELS 3 Zrotation Xrotation Yrotation
        JOINT Spine3
        {
          OFFSET 14.7254 4.19617e-005 0
          CHANNELS 3 Zrotation Xrotation Yrotation
          JOINT Spine4
          {
            OFFSET 10.9679 0 0
            CHANNELS 3 Zrotation Xrotation Yrotation
            JOINT RightShoulder
            {
              OFFSET 2.46616 -1.6653 3.69651
              CHANNELS 3 Zrotation Xrotation Yrotation
              JOINT RightArm
              {
                OFFSET 13.0012 0 0
                CHANNELS 3 Zrotation Xrotation Yrotation
                JOINT RightForeArm
                {
                  OFFSET 28.7848 1.52588e-005 0
                  CHANNELS 3 Zrotation Xrotation Yrotation
                  JOINT RightHand
                  {
                    OFFSET 26.5688 1.52588e-005 0
                    CHANNELS 3 Zrotation Xrotation Yrotation
                    End Site
                    {
                      OFFSET 0 0 0
                    }
                  }
                }
              }
            }
            JOINT LeftShoulder
            {
              OFFSET 2.38034 -1.29275 -3.7523
              CHANNELS 3 Zrotation Xrotation Yrotation
              JOINT LeftArm
              {
                OFFSET 16.3182 6.10352e-005 0
                CHANNELS 3 Zrotation Xrotation Yrotation
                JOINT LeftForeArm
                {
                  OFFSET 27.0901 0 0
                  CHANNELS 3 Zrotation Xrotation Yrotation
                  JOINT LeftHand
                  {
                    OFFSET 24.5451 1.52588e-005 0
                    CHANNELS 3 Zrotation Xrotation Yrotation
                    End Site
                    {
                      OFFSET 0 0 0
                    }
                  }
                }
              }
            }
            JOINT Neck
            {
              OFFSET 5.0226 -0.0266342 0
              CHANNELS 3 Zrotation Xrotation Yrotation
              JOINT Head
              {
                OFFSET 6.69363 2.86102e-005 0
                CHANNELS 3 Zrotation Xrotation Yrotation
                End Site
                {
                  OFFSET 0 0 0
                }
              }
            }
          }
        }
      }
    }
  }
}
MOTION
Frames:	13
Frame Time:	0.0416667
105.927 91.8762 -109.481 -72.7821 -48.2614 -75.3348 -177.172 4.71077 89.93 -28.7498 21.7031 5.93967 71.5828 16.7325 21.1501 57.4287 -0.941786 10.4613 168.191 49.8521 87.6068 -52.1841 -8.75987 3.88779 63.5998 -1.01068 16.9121 67.627 -6.60825 -1.96167 -0.662616 9.60248 -90.214 7.66495 -1.41594 -0.348213 -4.00526 -1.4299 -0.285545 -26.5451 -1.24582 -0.757723 -6.53247 -1.24582 -0.757724 109.217 -50.9726 -71.3129 28.9925 7.67659 -16.9754 1.69734 -25.0126 -0.953203 -8.68808 -0.451316 0.73603 -79.6261 -45.3883 93.9973 -17.6751 -0.761646 -33.8751 21.8828 21.2412 -56.2523 11.0032 -1.06968 -12.6696 22.0648 -0.229111 -7.23005 -9.24084 1.61307 12.2511 
113.638 93.8355 -115.801 -73.2783 -47.348 -79.1508 -178.773 11.6845 85.3157 -28.9492 20.3678 3.75581 68.5772 13.2373 20.8957 53.7369 -1.52547 5.83684 168.618 42.3263 85.6737 -69.3277 -11.353 1.04959 63.1595 -1.42109 15.8326 66.7952 -6.38726 -1.6831 -0.370199 9.6667 -89.7505 7.54546 -0.630706 0.520426 -4.12541 -0.607197 0.547677 -26.6619 -0.757983 0.306803 -6.64924 -0.757978 0.306795 108.657 -50.7027 -72.1392 31.1218 5.33897 -20.7948 1.85072 -21.7892 -2.28368 -11.1289 -0.640502 1.72005 -79.2726 -46.7846 94.6079 -21.0521 -2.52034 -31.213 21.3392 27.6955 -46.601 10.2162 -0.811612 -10.7271 15.6758 -1.24123 -6.04267 -2.62997 0.58135 12.1685 
119.312 95.5128 -119.805 -74.3783 -43.2308 -75.776 -178.14 16.638 88.4398 -29.9846 18.9586 4.50443 67.3498 10.4087 19.3208 50.1423 -1.40332 5.7892 172.51 25.0189 91.0464 -66.5834 -4.83691 -0.120598 63.3713 -0.439198 23.7288 60.0975 -5.23371 -1.85312 0.145077 9.20113 -90.0641 8.47178 0.261218 -0.143076 -3.19915 0.254654 -0.154457 -25.7345 0.292128 -0.0579577 -5.72186 0.292123 -0.0579683 108.947 -49.7658 -71.5684 28.3367 -2.90127 -23.799 1.8037 -24.6458 -11.6749 -6.83386 -0.212943 -1.67501 -77.9015 -47.6949 96.7768 -20.8114 -3.95613 -19.2914 16.4978 39.6153 -34.0521 4.48395 -0.452841 -10.4125 11.815 -1.18996 -10.0934 -4.64998 1.16076 15.0891 
125.176 96.0535 -124.827 -75.329 -39.3352 -79.6649 -177.703 21.351 86.4214 -28.5344 16.0404 1.67816 64.7962 8.61144 18.0315 45.6273 -1.2946 4.37006 175.685 12.5538 89.0571 -46.2188 -9.98691 -1.33663 60.0497 0.862648 23.4751 63.5647 -4.10232 6.42602 0.355243 8.89386 -89.6569 9.08201 0.861959 0.621047 -2.58881 0.88846 0.582495 -25.124 0.635465 0.85138 -5.11135 0.635481 0.851385 109.69 -50.5595 -70.5285 24.6778 -8.85116 -23.112 -8.93043 -24.8858 -35.2914 -2.85657 -0.0547524 -4.0701 -77.7069 -46.9298 97.0804 -23.0241 -8.26814 -7.87506 23.9912 58.7194 -34.5968 0.571649 -0.228455 -10.4028 15.6152 -0.92539 -10.8372 -8.20961 1.46285 15.4109 
131.322 96.3319 -129.524 -76.1013 -38.8638 -81.8899 -177.913 25.4542 85.1572 -26.81 15.0448 0.257715 60.5124 6.17179 17.0553 43.1275 -1.22673 2.78102 175.862 5.76549 88.1796 -26.6833 -7.17822 -1.46651 58.1642 2.18956 24.638 56.2203 -3.3845 5.83796 0.481909 8.89171 -89.6926 9.0877 1.09868 0.531205 -2.58286 1.12098 0.482323 -25.1198 0.888229 0.836857 -5.10714 0.888234 0.836848 109.468 -50.4539 -70.8553 22.1476 -13.4651 -23.9477 -9.31897 -15.9327 -48.2651 -14.8035 -0.43915 -1.82583 -77.0643 -47.7159 98.0864 -26.7333 -14.827 -5.63283 24.5913 73.3106 -27.1534 -5.20025 0.0626174 -11.2641 18.907 -1.0011 -8.15424 -9.57935 0.737465 15.2408 
137.028 96.4824 -134.317 -75.7739 -39.815 -82.0688 -176.816 29.8123 85.5733 -25.065 16.2876 -0.963991 57.8406 3.81726 9.3817 48.8139 -1.15174 8.68764 175.245 8.27645 88.2281 -26.1848 -2.04587 -0.33487 68.9808 -0.0763367 22.3436 43.3656 -2.20178 1.61433 0.602806 8.68775 -89.9157 9.49845 1.23988 0.0739105 -2.17189 1.24194 0.0192642 -24.7114 1.16033 0.44317 -4.69873 1.16034 0.44319 109.866 -50.7282 -70.2805 21.4784 -14.3304 -23.5588 -10.5609 -13.292 -53.6338 -12.9331 -0.282917 -2.88187 -76.0799 -48.3781 99.6023 -29.9442 -16.9982 -9.48777 4.52238 78.5087 -2.55898 -9.46476 0.353436 -11.4059 16.3643 -1.27703 -8.06392 -8.73703 0.381997 14.7164 
141.102 96.1949 -138.033 -78.7577 -43.3944 -83.9705 -176.273 32.1237 86.0194 -34.4326 17.8069 -0.650758 56.5336 2.94773 5.35499 59.7572 -0.133422 16.0154 175.365 8.61842 89.166 -27.7435 -0.161083 -0.02387 75.4355 -1.57405 17.6579 33.8865 -0.789801 -0.133347 0.378603 8.61957 -90.0732 9.63548 0.721761 -0.201179 -2.03527 0.712219 -0.232757 -24.572 0.748846 0.0250562 -4.5594 0.748875 0.0250535 110.688 -51.2005 -69.0949 21.1172 -14.9361 -22.6637 -11.131 -17.1434 -49.4927 -11.1581 -0.215322 -3.05381 -76.8703 -47.6915 98.3889 -30.0768 -13.7077 -10.7213 3.10174 78.3954 -4.04443 -10.6471 0.526531 -12.8848 14.845 -1.2506 -7.81955 -10.3492 0.133667 12.8755 
143.746 96.7969 -140.144 -83.3083 -44.7629 -86.4996 -176.006 29.0285 86.9961 -49.7252 12.6879 1.02876 61.3989 7.8877 9.92915 54.7113 -0.705082 13.4944 175.408 7.31155 89.2604 -27.7148 0.229034 -0.0928312 74.1156 -0.307963 19.5949 31.3584 -0.336061 -0.93502 0.272476 8.41482 -90.1514 10.0449 0.474165 -0.340967 -1.626 0.45869 -0.361515 -24.1617 0.554694 -0.182698 -4.14908 0.554711 -0.182709 110.902 -52.4066 -68.966 22.4668 -12.7346 -18.3642 -11.0143 -26.3734 -40.3489 -9.84796 -0.362533 -0.959193 -76.6063 -46.8768 98.8186 -31.0996 -10.7432 -14.121 7.99946 73.2675 -10.4927 -7.31915 0.209698 -11.3039 12.6286 -1.08033 -8.69639 -12.8261 0.0311504 13.6589 
146.031 97.335 -141.287 -85.7196 -45.9468 -88.7282 -178.246 19.1905 86.3359 -47.3453 11.8635 2.80912 61.3069 8.24993 10.5471 57.556 -0.627731 13.5288 175.23 7.83838 88.5942 -29.0429 -0.0307787 -0.290725 72.7265 -0.829667 17.4758 32.2941 -0.563455 0.342429 0.199364 8.0484 -90.0702 10.7755 0.364483 -0.176322 -0.895451 0.356383 -0.192208 -23.4309 0.400634 -0.0586273 -3.41828 0.40062 -0.058644 111.64 -53.0753 -67.9712 25.8136 -5.21593 -14.5923 -6.8404 -37.1306 -24.8163 -10.0751 -0.426677 -0.294796 -76.5956 -46.8969 98.8334 -31.9545 -7.84991 -18.3441 11.7869 62.86 -15.6106 -3.51859 -0.0256513 -11.4067 9.31827 -1.05153 -8.40577 -13.3462 -0.22014 12.3182 
148.023 97.688 -141.97 -85.6412 -46.9863 -85.2487 -178.003 4.83494 91.1509 -21.8254 18.6994 4.43639 60.3002 8.67304 16.0351 54.2298 -1.40264 6.76672 176.12 7.76245 91.5401 -26.2974 3.05847 0.269439 69.6623 -0.102185 19.4365 33.3156 -0.712522 0.10965 -0.00352008 7.53359 -90.4446 11.8091 -0.215769 -0.856513 0.137863 -0.253239 -0.846194 -22.3953 0.0516227 -0.881758 -2.38264 0.0516289 -0.881769 111.418 -53.1782 -68.3188 28.6052 4.51162 -12.8211 2.00923 -42.1483 -4.54274 -9.38097 -0.592457 2.32505 -75.7007 -47.754 100.215 -31.2406 -3.86653 -19.5397 13.8723 50.0257 -23.1878 1.84083 -0.316681 -10.7067 6.72602 -0.268092 -8.86375 -13.8722 0.344224 12.8711 
149.595 98.9718 -143.294 -84.8662 -49.5669 -84.371 -175.335 0.283527 91.3892 -8.84283 20.2408 4.63116 60.6013 5.48837 8.70253 44.0936 -1.245 3.18157 176.447 6.49041 92.0368 -20.3154 4.02979 0.380811 64.7324 -0.052053 17.1473 34.8586 -0.915664 -0.73666 -0.364702 6.99025 -90.3866 12.8905 -0.909368 -0.663292 1.21974 -0.937699 -0.622636 -21.3156 -0.668 -0.905925 -1.30295 -0.668004 -0.905934 113.246 -54.3419 -65.8322 28.3801 12.9029 -10.2382 0.530657 -45.3582 0.000409909 -10.0266 -0.848133 4.85899 -75.1794 -47.7769 101.028 -32.2653 -1.74525 -21.408 24.8843 52.5081 -35.5299 -2.3634 -0.0910948 -11.6172 4.13591 -0.201443 -9.0496 -16.4923 0.0902734 11.6004 
151.376 99.1443 -143.991 -84.0847 -49.6266 -84.3251 -175.303 1.6412 90.9681 -8.45324 22.5643 3.66595 59.4392 4.82746 10.6806 43.3626 -1.23452 0.727861 176.253 7.99503 90.9756 -20.027 5.43018 0.243441 64.0316 1.01674 19.3132 32.7692 -0.56037 -1.00894 -0.234341 6.662 -90.1735 13.5487 -0.548638 -0.274078 1.87779 -0.560159 -0.249662 -20.6577 -0.44089 -0.426288 -0.645057 -0.440901 -0.426291 112.727 -53.6114 -66.4547 30.0661 14.0776 -3.34623 -0.761042 -37.5265 -0.607044 -9.40657 -0.819711 4.85857 -75.8169 -46.9704 100.058 -31.2385 1.15799 -23.6054 26.01 50.1073 -40.546 -7.19897 0.285166 -13.2896 4.48832 -0.697022 -8.86766 -18.0226 -0.429013 10.5158 
153.246 99.3205 -144.855 -89.4331 -48.3615 -87.5459 -175.63 -0.0294779 90.4098 -9.87744 22.0904 4.44007 58.122 4.66241 12.2025 44.0014 -1.27433 1.32224 176.267 5.06723 91.1298 -18.5776 3.63393 0.0682809 63.321 0.970076 18.3047 31.3573 -0.321261 -1.04066 -0.0103968 7.00715 -90.2494 12.8593 -0.140126 -0.481024 1.1883 -0.161153 -0.47439 -21.3462 0.0109051 -0.500902 -1.33352 0.010928 -0.500891 112.077 -53.6827 -67.4313 29.5399 11.3499 -3.36441 -1.20254 -36.2435 -3.71271 -4.11916 -0.227552 1.93919 -76.5278 -47.2896 98.9283 -30.2958 2.592 -23.5765 31.4108 47.7235 -47.4179 -5.75023 0.225457 -15.1081 4.06493 -0.538052 -6.47262 -15.9178 -0.355089 9.11964 
